<!-- Generated by IcoMoon.io -->
<svg version="1.1" xmlns="http://www.w3.org/2000/svg" width="480" height="480" viewBox="0 0 480 480">
<title></title>
<g id="icomoon-ignore">
</g>
<path fill="#666" d="M475.74 239.466l4.26 7.392-4.26 7.392c-23.5 40.784-57.292 74.988-97.725 98.916-41.667 24.659-89.392 37.693-138.016 37.693s-96.349-13.034-138.016-37.693c-40.433-23.929-74.225-58.133-97.725-98.916l-4.26-7.392 4.26-7.392c23.5-40.784 57.292-74.988 97.725-98.916 41.667-24.659 89.392-37.693 138.016-37.693s96.349 13.034 138.016 37.693c40.432 23.929 74.225 58.133 97.725 98.916zM440.687 241.334c-19.989-34.143-48.732-62.778-83.124-82.81-35.441-20.644-76.036-31.556-117.396-31.556s-81.954 10.912-117.396 31.556c-34.392 20.032-63.135 48.667-83.124 82.81l-3.623 6.188 3.623 6.188c19.989 34.143 48.732 62.778 83.124 82.81 35.441 20.644 76.036 31.556 117.396 31.556s81.954-10.912 117.396-31.556c34.392-20.032 63.135-48.667 83.124-82.81l3.623-6.188-3.623-6.188zM240.168 307.744c33.166 0 60.034-26.973 60.034-60.222s-26.867-60.222-60.034-60.222c-33.166 0-60.034 26.973-60.034 60.222s26.867 60.222 60.034 60.222zM240.168 283.744c-19.89 0-36.034-16.207-36.034-36.222s16.143-36.222 36.034-36.222c19.89 0 36.034 16.207 36.034 36.222s-16.143 36.222-36.034 36.222z"></path>
</svg>
